<?xml version="1.0" standalone="no"?>
<!DOCTYPE svg PUBLIC "-//W3C//DTD SVG 20010904//EN"
 "http://www.w3.org/TR/2001/REC-SVG-20010904/DTD/svg10.dtd">
<svg version="1.0" xmlns="http://www.w3.org/2000/svg"
 width="200.000000pt" height="35.000000pt" viewBox="0 0 200.000000 35.000000"
 preserveAspectRatio="xMidYMid meet">
<metadata>
Created by potrace 1.16, written by Peter Selinger 2001-2019
</metadata>
<g transform="translate(0.000000,35.000000) scale(0.100000,-0.100000)"
fill="#A66E4C" stroke="none">
<path d="M100 342 c0 -5 -11 -69 -25 -143 -29 -157 -29 -159 -11 -159 9 0 19
28 29 82 18 90 45 128 93 128 23 0 64 -31 64 -48 0 -13 -20 -125 -27 -145 -4
-14 0 -18 13 -15 13 2 21 19 30 68 18 92 17 117 -6 140 -24 24 -87 27 -116 5
-29 -22 -33 -18 -23 23 12 54 11 72 -6 72 -8 0 -15 -4 -15 -8z"/>
<path d="M625 308 c-3 -24 -15 -89 -26 -146 -10 -57 -19 -107 -19 -113 0 -19
28 -8 34 13 5 21 6 21 18 5 18 -24 67 -35 105 -25 40 10 89 69 96 115 7 39 -6
80 -31 99 -27 21 -95 17 -127 -8 l-27 -21 7 61 c6 52 4 62 -8 62 -10 0 -17
-14 -22 -42z m163 -85 c22 -30 15 -90 -15 -123 -38 -41 -80 -48 -117 -19 -25
20 -28 27 -23 66 7 68 53 107 112 98 17 -3 36 -13 43 -22z"/>
<path d="M905 338 c-2 -7 -13 -69 -25 -138 -12 -69 -23 -133 -26 -142 -4 -12
0 -18 11 -18 9 0 19 9 22 21 l6 20 23 -21 c47 -45 139 -18 174 50 45 88 12
160 -73 160 -30 0 -53 -7 -72 -22 l-27 -21 7 44 c3 24 9 52 11 62 6 20 -24 25
-31 5z m146 -107 c18 -14 23 -28 23 -58 -3 -102 -118 -152 -163 -71 -22 38 -1
102 42 128 40 25 68 25 98 1z"/>
<path d="M1862 330 c-13 -11 -43 -25 -65 -31 -90 -23 -147 -88 -147 -164 0
-48 44 -95 90 -95 88 0 165 105 112 153 -28 25 -67 21 -91 -9 -21 -27 -28 -54
-13 -54 4 0 15 14 24 30 18 31 45 39 66 18 19 -19 14 -44 -14 -77 -46 -55
-131 -49 -149 10 -21 66 31 139 118 164 55 16 107 48 107 66 0 14 -13 10 -38
-11z"/>
<path d="M365 248 c-56 -44 -72 -137 -32 -184 30 -34 92 -36 139 -3 l31 23 -5
-22 c-5 -16 -2 -22 11 -22 14 0 20 19 34 104 21 126 21 126 2 126 -9 0 -15 -9
-15 -21 l0 -20 -26 20 c-36 29 -102 28 -139 -1z m124 -16 c42 -33 25 -124 -28
-155 -40 -23 -68 -21 -96 8 -74 73 44 212 124 147z"/>
<path d="M1185 239 c-45 -40 -62 -93 -45 -143 6 -20 21 -41 32 -47 33 -18 88
-13 119 10 29 21 29 21 29 1 0 -11 6 -20 14 -20 10 0 18 18 25 53 11 54 31
168 31 174 0 2 -6 3 -14 3 -8 0 -18 -9 -21 -21 l-7 -21 -22 21 c-35 33 -97 29
-141 -10z m130 -11 c24 -19 27 -26 22 -66 -6 -54 -39 -90 -89 -98 -47 -8 -78
21 -78 72 0 89 82 142 145 92z"/>
<path d="M1415 178 c-9 -51 -19 -104 -22 -116 -5 -19 -2 -23 12 -20 15 2 21
19 31 76 7 40 19 83 28 97 21 32 69 42 103 20 27 -18 28 -33 7 -158 -5 -29 -3
-37 9 -37 11 0 18 18 26 63 16 92 14 131 -7 150 -24 21 -90 22 -120 1 -20 -14
-22 -14 -22 0 0 9 -6 16 -14 16 -10 0 -19 -28 -31 -92z"/>
<path d="M1760 242 c-45 -24 -77 -84 -64 -120 14 -40 57 -51 92 -25 15 11 29
29 31 39 3 18 2 18 -20 -2 -51 -45 -79 -41 -79 11 0 48 38 85 90 85 72 0 103
-66 65 -140 -17 -33 -80 -70 -122 -71 -15 0 -37 -4 -48 -9 -14 -6 -5 -9 35 -9
98 -1 170 63 170 152 0 48 -22 82 -62 96 -41 15 -48 14 -88 -7z"/>
</g>
</svg>
